<svg xmlns="http://www.w3.org/2000/svg" width="141mm" height="47.5mm" viewBox="0 0 141 47.5"><path d="M0 0c.436 0 .822.123 1.16.368s.581.563.736.954h1.1a3.126 3.126 0 0 0-1.14-1.62C1.274-.716.586-.925-.214-.925c-1 0-1.81.341-2.44 1.02-.609.664-.913 1.5-.913 2.49 0 1 .304 1.83.913 2.49.626.681 1.44 1.02 2.44 1.02.799 0 1.49-.209 2.07-.627a3.075 3.075 0 0 0 1.14-1.62h-1.1c-.155.39-.4.708-.736.953-.336.246-.722.368-1.16.368s-.807-.068-1.11-.204-.561-.322-.77-.559c-.445-.49-.667-1.1-.667-1.83s.222-1.34.667-1.83C-1.425.237-.8-.017 0-.017" style="fill:#4e585a" transform="matrix(2.78 0 0 -2.78 69 31.1)"/><path d="M0 0v-1.02h-.123c-.735 0-1.34-.295-1.8-.886-.436-.563-.654-1.24-.654-2.02v-3h-1.02v6.81h1.02v-1.68c.218.708.69 1.23 1.42 1.57.3.145.663.218 1.09.218z" style="fill:#4e585a" transform="matrix(2.78 0 0 -2.78 91 14.2)"/><path d="M0 0c-.627 0-1.15-.196-1.58-.586-.4-.373-.645-.859-.736-1.46h4.63c-.091.599-.337 1.08-.736 1.46C1.15-.196.624 0-.002 0M.08-5.18c.917 0 1.58.381 1.98 1.14h1.12a3.302 3.302 0 0 0-1.12-1.5C1.547-5.921.89-6.112.08-6.112c-1.03 0-1.86.341-2.51 1.02-.627.663-.94 1.49-.94 2.49 0 1.01.299 1.84.899 2.49.636.681 1.46 1.02 2.48 1.02s1.84-.341 2.48-1.02c.599-.655.899-1.49.899-2.49v-.409h-5.71c.072-.627.322-1.14.749-1.55.436-.417.99-.626 1.66-.626" style="fill:#4e585a" transform="matrix(2.78 0 0 -2.78 102 16.8)"/><path d="M0 0c.736 0 1.32.254 1.74.763.409.482.614 1.09.614 1.83s-.205 1.34-.614 1.83c-.427.509-1.01.763-1.74.763s-1.32-.254-1.74-.763c-.409-.481-.613-1.09-.613-1.83s.204-1.34.613-1.83C-1.313.254-.73 0 0 0m0 6.1c1.02 0 1.84-.341 2.48-1.02.6-.654.9-1.48.9-2.49 0-1.01-.3-1.84-.9-2.49C1.844-.581 1.02-.92 0-.92S-1.84-.579-2.48.1c-.599.655-.899 1.49-.899 2.49 0 1.01.3 1.84.899 2.49.636.681 1.46 1.02 2.48 1.02" style="fill:#4e585a" transform="matrix(2.78 0 0 -2.78 123 31.1)"/><path d="M0 0c.089 0 .16.017.213.051s.079.081.079.143a.177.177 0 0 1-.063.144C.186.373.108.391-.007.391h-.27V0zm.512.219C.512.147.49.083.448.027S.347-.069.273-.092c.117-.034.188-.13.213-.286a.76.76 0 0 0 .01-.108v-.15H.277v.121c0 .091-.01.157-.029.197-.04.085-.112.127-.216.127h-.309v-.445h-.222v1.21h.515C.187.574.313.541.392.476a.322.322 0 0 0 .12-.261m-.538-1.18c.259 0 .479.091.662.273a.958.958 0 0 1 .2.298c.048.113.073.234.073.362a.918.918 0 0 1-.273.659.905.905 0 0 1-.662.274.884.884 0 0 1-.657-.274.907.907 0 0 1-.274-.661c0-.127.025-.247.074-.36a.925.925 0 0 1 .2-.298.883.883 0 0 1 .657-.273m0 2.02A1.104 1.104 0 0 0 .979.39c.057-.133.086-.274.086-.425a1.086 1.086 0 0 0-.32-.767 1.107 1.107 0 0 0-.346-.234 1.065 1.065 0 0 0-.425-.086c-.15 0-.291.029-.422.086a1.1 1.1 0 0 0-.664 1.001c0 .151.028.292.086.425.057.132.135.247.233.346.099.098.214.176.345.233.131.058.272.086.422.086" style="fill:#4e585a" transform="matrix(2.78 0 0 -2.78 138 17.8)"/><path d="m0 0 6.97 4.02L0 8.04l-6.98-4.03z" style="fill:#4e585a" transform="matrix(2.78 0 0 -2.78 21 22.3)"/><path d="m0 0-6.97 4.02v-8.05L0-8.06z" style="fill:#4e585a" transform="matrix(2.78 0 0 -2.78 19 25.1)"/><path d="M194-37.6v22.4l19.4-11.2v-22.4z" style="fill:#68bf4b" transform="translate(-172 62.7)"/></svg>